<svg width="16" height="20" viewBox="0 0 16 20" fill="none" xmlns="http://www.w3.org/2000/svg">
<path d="M4.38441 0.479261L3.52521 0.738461C2.75888 0.969302 2.07446 1.41429 1.55253 2.02104C1.03061 2.62779 0.692914 3.37104 0.579207 4.16326C0.222807 6.64486 1.01961 9.54646 2.94081 12.8741C4.85721 16.1933 6.96681 18.3317 9.28881 19.2677C10.0349 19.5683 10.8516 19.6485 11.6419 19.4985C12.4322 19.3485 13.1628 18.9748 13.7468 18.4217L14.3984 17.8049C14.8206 17.405 15.0832 16.8655 15.1375 16.2865C15.1918 15.7076 15.0341 15.1286 14.6936 14.6573L13.0664 12.4013C12.8464 12.0967 12.5366 11.8686 12.1805 11.7489C11.8243 11.6293 11.4397 11.6241 11.0804 11.7341L8.61921 12.4865L8.55561 12.4985C8.28441 12.5381 7.65921 11.9513 6.87921 10.6001C6.06321 9.18646 5.89281 8.35966 6.11841 8.14606L7.37121 6.97846C7.8287 6.55167 8.14112 5.99238 8.26465 5.37904C8.38818 4.7657 8.31662 4.12907 8.06001 3.55846L7.26801 1.79326C7.02908 1.26155 6.6048 0.834966 6.07439 0.593166C5.54397 0.351366 4.94369 0.310878 4.38561 0.479261H4.38441ZM6.17241 2.28526L6.96561 4.05046C7.11985 4.39274 7.16298 4.77474 7.08894 5.14279C7.0149 5.51085 6.82741 5.84645 6.55281 6.10246L5.29761 7.27126C4.49361 8.03086 4.76001 9.33046 5.83881 11.2001C6.85521 12.9593 7.78161 13.8281 8.77641 13.6769L8.92521 13.6457L11.4308 12.8813C11.5506 12.8445 11.6789 12.8461 11.7977 12.8859C11.9164 12.9257 12.0198 13.0017 12.0932 13.1033L13.7204 15.3593C13.8908 15.595 13.9698 15.8846 13.9426 16.1742C13.9155 16.4638 13.784 16.7337 13.5728 16.9337L12.9212 17.5505C12.504 17.9453 11.9823 18.2121 11.4179 18.319C10.8536 18.426 10.2704 18.3688 9.73761 18.1541C7.70001 17.3333 5.77401 15.3809 3.98001 12.2741C2.18241 9.16006 1.45521 6.51166 1.76721 4.33366C1.84838 3.76763 2.08962 3.23659 2.46253 2.80309C2.83543 2.36959 3.32446 2.0517 3.87201 1.88686L4.73241 1.62766C5.01136 1.54384 5.31127 1.56434 5.57622 1.68533C5.84117 1.80633 6.05307 2.01956 6.17241 2.28526Z" fill="white"/>
</svg>
